<svg width="47" height="32" fill="none" xmlns="http://www.w3.org/2000/svg"><g clip-path="url(#a)" fill-rule="evenodd" clip-rule="evenodd"><path d="M0 0h14.232v1.185h1.186V0h8.302v1.185h1.186V0h8.302v1.185h1.186V0h8.303v1.185h1.185V2.37h1.187v1.186h1.185v14.222h-3.557v1.185h1.185v3.555h-2.371v3.556h1.185v1.185h1.187V32h-7.117v-1.185H35.58V29.63h-1.186V32H15.418v-1.185h-1.186V29.63h-1.186v-1.186H11.86V27.26h-1.186V32H5.93v-1.185H4.744V29.63H3.558V15.407H2.372v-1.185H1.186v-1.185H0V0Z" fill="#E61010"/><path d="M4.744 3.556H17.79v14.222h-3.558V7.11h-1.186v10.667H9.488V7.11H8.302v10.667H4.744V3.556Zm14.232 0h8.302v9.481h-4.744v1.185h4.744v3.556h-8.302V3.556Zm9.488 0h8.302V7.11h-4.744v7.111h1.186v-3.555h3.558v7.11h-8.302V3.557Zm9.488 0h8.303v14.222h-8.303V9.48h4.744v-2.37h-4.744V3.556ZM22.534 7.11v2.37h1.186v-2.37h-1.186Zm18.976 5.926v2.37h1.186v-2.37H41.51ZM7.116 18.963h8.302v8.296h-4.744V32H7.116V18.963Zm9.488 0h8.302V32h-8.302V18.963Zm9.488 0h8.302V32h-3.558v-9.482H29.65V32h-3.558V18.963Zm9.488 0h8.303v3.555H41.51v5.926h2.373V32h-5.93v-9.482H35.58v-3.555Zm-24.906 3.555v1.186h1.186v-1.186h-1.186Zm9.488 0v5.926h1.186V22.52h-1.186Z" fill="#E6B110"/></g><defs><clipPath id="a"><path fill="#fff" d="M0 0h46.255v32H0z"/></clipPath></defs></svg>